# xmcd
#
# Track frame offsets:
#	150
#	8097
#	24130
#	39460
#	59995
#	85447
#	107995
#	127385
#	152185
#	173007
#	186927
#
# Disc length: 2695 seconds
#
# Revision: 1
# Processed by: cddbd v1.4PL0 Copyright (c) Steve Scherf et al.
# Submitted via: audiograbber 1.80
#
DISCID=960a850b
DTITLE=Tammy Kay Arnim - Proud American
DYEAR=1900
DGENRE=
TTITLE0=Amazing Grace
TTITLE1=Daddy's Hands
TTITLE2=God Bless The USA
TTITLE3=He Hung The Moon
TTITLE4=Welcome To Heaven
TTITLE5=He Is Still A Father
TTITLE6=I Will Be Here
TTITLE7=He'll Do It Again
TTITLE8=I'll Talk To The Father
TTITLE9=Standing In The Presence
TTITLE10=If Not You
EXTD=
EXTT0=
EXTT1=
EXTT2=
EXTT3=
EXTT4=
EXTT5=
EXTT6=
EXTT7=
EXTT8=
EXTT9=
EXTT10=
PLAYORDER=
